<?xml version="1.0" encoding="UTF-8" standalone="no"?>
<svg width="64" height="64" viewBox="0 0 64 64" xmlns="http://www.w3.org/2000/svg">
  <!-- Background -->
  <rect width="64" height="64" rx="12" fill="#0a192f"/>

  <!-- First R -->
  <path d="M14 14 L14 50 L20 50 L20 36 L26 36 L32 50 L39 50 L32 34 Q36 32 38 29 Q40 26 40 22 Q40 18 38 16 Q34 14 28 14 Z M20 20 L28 20 Q30 20 31 21 Q32 22 32 24 Q32 26 31 27 Q30 28 28 28 L20 28 Z" fill="#64ffda"/>

  <!-- Second R (smaller and offset) -->
  <path d="M34 24 L34 50 L40 50 L40 40 L44 40 L48 50 L54 50 L49 38 Q52 36 53.5 34 Q55 32 55 29 Q55 26 53 24 Q50 22 46 22 Z M40 28 L45 28 Q46 28 47 29 Q48 30 48 31 Q48 32 47 33 Q46 34 45 34 L40 34 Z" fill="#64ffda" opacity="0.7"/>

  <!-- Decorative elements -->
  <rect x="4" y="4" width="56" height="56" rx="8" fill="none" stroke="#64ffda" stroke-width="1.5" opacity="0.3"/>
  <circle cx="32" cy="32" r="24" fill="none" stroke="#64ffda" stroke-width="1" opacity="0.2"/>
</svg>
