<?xml version="1.0" encoding="UTF-8" standalone="no"?>
<svg width="64" height="64" viewBox="0 0 64 64" xmlns="http://www.w3.org/2000/svg">
  <!-- Background -->
  <rect width="64" height="64" rx="12" fill="#0a192f"/>
  
  <!-- RR monogram -->
  <g transform="translate(8, 12)">
    <!-- First R -->
    <path d="M0 0 L0 40 L8 40 L8 24 L12 24 L20 40 L30 40 L20 22 
             C24 21 26 18 26 14 C26 6 20 0 12 0 Z 
             M8 8 L12 8 C14 8 16 10 16 14 C16 18 14 20 12 20 L8 20 Z" 
          fill="#64ffda"/>
    
    <!-- Second R -->
    <path d="M32 0 L32 40 L40 40 L40 24 L44 24 L52 40 L62 40 L52 22 
             C56 21 58 18 58 14 C58 6 52 0 44 0 Z 
             M40 8 L44 8 C46 8 48 10 48 14 C48 18 46 20 44 20 L40 20 Z" 
          fill="#64ffda" opacity="0.8"/>
  </g>
  
  <!-- Decorative elements -->
  <rect x="4" y="4" width="56" height="56" rx="8" fill="none" stroke="#64ffda" stroke-width="1.5" opacity="0.3"/>
  <circle cx="32" cy="32" r="24" fill="none" stroke="#64ffda" stroke-width="1" opacity="0.2"/>
</svg>
