<?xml version="1.0" encoding="UTF-8" standalone="no"?>
<svg width="64" height="64" viewBox="0 0 64 64" xmlns="http://www.w3.org/2000/svg">
  <!-- Background -->
  <rect width="64" height="64" rx="12" fill="#0a192f"/>
  
  <!-- Single R - Bold and Clear -->
  <path d="M18 14 h14 q8 0 12 4 q4 4 4 9 q0 5 -4 9 q-3 3 -8 4 l10 20 h-10 l-9 -20 h-3 v20 h-8 v-46 Z
           M26 22 v12 h6 q4 0 6 -2 q2 -2 2 -4 q0 -2 -2 -4 q-2 -2 -6 -2 Z" 
        fill="#64ffda"/>
  
  <!-- Decorative elements -->
  <rect x="4" y="4" width="56" height="56" rx="8" fill="none" stroke="#64ffda" stroke-width="1.5" opacity="0.3"/>
  <circle cx="32" cy="32" r="24" fill="none" stroke="#64ffda" stroke-width="1" opacity="0.2"/>
</svg>
